<?xml version="1.0" standalone="no"?>
<!DOCTYPE svg PUBLIC "-//W3C//DTD SVG 20010904//EN"
 "http://www.w3.org/TR/2001/REC-SVG-20010904/DTD/svg10.dtd">
<svg version="1.0" xmlns="http://www.w3.org/2000/svg"
 width="700.000000pt" height="700.000000pt" viewBox="0 0 700.000000 700.000000"
 preserveAspectRatio="xMidYMid meet">
<metadata>
Created by potrace 1.11, written by Peter Selinger 2001-2013
</metadata>
<g transform="translate(0.000000,700.000000) scale(0.100000,-0.100000)"
fill="#000000" stroke="none">
<path d="M3448 6345 c-2 -2 -43 -5 -93 -9 -49 -3 -100 -7 -112 -10 -11 -2 -43
-8 -70 -11 -26 -4 -93 -18 -148 -32 -701 -172 -1265 -691 -1471 -1354 -13 -43
-28 -99 -34 -125 -5 -27 -12 -60 -15 -74 -17 -84 -27 -198 -26 -310 2 -115 6
-186 15 -228 4 -15 8 -38 11 -52 22 -124 96 -337 153 -440 13 -25 40 -74 59
-108 80 -146 211 -328 288 -402 244 -233 273 -269 375 -463 115 -219 171 -393
186 -577 9 -111 23 -156 64 -203 50 -57 106 -75 220 -72 105 3 96 0 108 33 12
29 10 1357 -1 1401 -17 63 -39 112 -184 402 -144 289 -155 314 -150 355 2 24
12 55 22 70 19 29 91 65 120 59 11 -2 28 -4 37 -4 43 -2 79 -55 199 -299 230
-467 258 -528 269 -578 7 -32 12 -292 13 -733 2 -640 3 -683 20 -696 13 -9 65
-12 203 -11 167 1 187 3 199 19 11 15 13 148 14 697 0 404 4 696 10 722 13 59
33 100 225 488 110 223 176 344 196 363 61 55 166 33 205 -43 31 -60 22 -85
-139 -407 -84 -169 -162 -326 -172 -348 -18 -38 -19 -82 -22 -747 -3 -687 -2
-708 16 -726 17 -17 33 -19 123 -17 122 2 159 15 211 73 42 47 49 71 72 238
30 224 120 469 242 662 19 29 34 55 34 57 0 12 56 71 206 220 162 161 206 217
329 420 89 147 189 369 210 465 1 8 8 33 13 55 15 55 21 89 37 202 8 51 8 245
0 318 -28 284 -127 564 -289 815 -66 102 -63 99 -157 210 -200 235 -429 408
-720 544 -155 72 -396 146 -522 160 -27 3 -52 8 -56 11 -5 2 -60 7 -122 10
-63 4 -133 8 -156 9 -24 2 -44 2 -45 1z"/>
<path d="M3196 1643 c-1 -1 -60 -3 -131 -4 -103 -1 -137 -5 -165 -19 -43 -23
-83 -65 -100 -107 -25 -64 4 -166 60 -210 58 -46 51 -46 639 -45 585 0 589 0
641 44 57 48 85 147 60 210 -20 51 -77 105 -124 117 -27 8 -186 12 -459 14
-230 1 -420 1 -421 0z"/>
<path d="M3173 1019 c-72 -35 -115 -111 -107 -188 5 -50 17 -76 53 -114 54
-60 60 -60 376 -61 281 0 292 1 335 23 130 65 141 241 21 326 l-43 30 -296 3
c-283 2 -299 1 -339 -19z"/>
</g>
</svg>
