<?xml version="1.0" standalone="no"?>
<!DOCTYPE svg PUBLIC "-//W3C//DTD SVG 20010904//EN"
 "http://www.w3.org/TR/2001/REC-SVG-20010904/DTD/svg10.dtd">
<svg version="1.0" xmlns="http://www.w3.org/2000/svg"
 width="1422.000000pt" height="1422.000000pt" viewBox="0 0 1422.000000 1422.000000"
 preserveAspectRatio="xMidYMid meet">
<metadata>
Created by potrace 1.11, written by Peter Selinger 2001-2013
</metadata>
<g transform="translate(0.000000,1422.000000) scale(0.100000,-0.100000)"
fill="#000000" stroke="none">
<path d="M1357 8417 c3 -5 0 -13 -6 -17 -7 -4 -14 -13 -15 -21 -2 -8 -7 -23
-11 -34 -40 -101 -87 -222 -89 -230 -2 -5 -7 -19 -11 -30 -4 -11 -18 -45 -30
-75 -12 -30 -42 -107 -66 -170 -24 -63 -49 -126 -56 -139 -6 -14 -10 -28 -7
-33 3 -4 0 -8 -5 -8 -6 0 -10 -3 -9 -7 2 -5 -5 -29 -15 -55 -18 -46 -20 -48
-60 -49 -110 -3 -268 -7 -552 -14 -392 -8 -405 -9 -415 -25 -8 -14 33 -53 92
-88 16 -9 28 -20 28 -24 0 -4 6 -8 14 -8 8 0 16 -3 18 -7 1 -5 32 -28 68 -52
36 -25 66 -48 68 -53 2 -4 10 -8 18 -8 8 0 14 -4 14 -10 0 -5 7 -10 15 -10 8
0 15 -4 15 -10 0 -5 5 -10 10 -10 6 0 16 -5 23 -10 46 -39 61 -50 68 -50 4 0
14 -6 21 -13 7 -7 65 -49 128 -92 63 -43 132 -91 152 -107 39 -30 39 -34 10
-108 -3 -8 -6 -17 -6 -20 -1 -3 -4 -10 -8 -16 -4 -6 -9 -24 -12 -40 -3 -16
-10 -40 -15 -54 -5 -14 -12 -34 -17 -45 -4 -11 -8 -24 -10 -30 -6 -26 -107
-333 -117 -360 -12 -31 -17 -52 -19 -72 -1 -7 -6 -13 -11 -13 -6 0 -8 -3 -4
-6 3 -3 -5 -35 -17 -70 -20 -55 -21 -65 -9 -76 16 -13 27 -8 145 69 37 24 72
43 77 43 6 0 11 3 11 8 0 4 33 26 73 50 39 24 121 74 180 113 60 38 111 69
113 69 3 0 10 5 17 10 11 10 40 29 157 101 25 16 50 32 55 37 7 6 33 -6 68
-29 31 -21 57 -35 57 -31 0 4 4 3 8 -3 8 -11 60 -48 82 -58 8 -4 42 -25 75
-47 33 -22 68 -43 78 -46 9 -4 17 -10 17 -15 0 -5 4 -9 10 -9 9 0 72 -39 97
-60 7 -5 14 -10 17 -10 3 0 76 -45 163 -100 87 -55 163 -100 170 -100 18 0 26
39 11 57 -7 9 -12 19 -12 22 2 8 0 14 -25 91 -12 36 -23 72 -25 80 -1 8 -5 22
-8 30 -7 16 -32 92 -33 100 -1 7 -45 142 -52 160 -4 8 -7 17 -8 20 -18 66 -38
129 -46 145 -6 12 -11 27 -12 35 -2 8 -6 21 -11 28 -4 7 -5 16 -2 19 3 3 1 12
-4 19 -6 6 -12 20 -15 30 -2 11 -6 26 -10 35 -3 9 1 22 9 30 35 32 46 39 46
32 0 -4 4 -3 8 3 4 6 50 41 102 77 52 37 100 70 105 74 39 31 117 83 124 83 5
0 11 4 13 8 2 4 84 65 184 134 99 70 186 133 193 142 26 31 28 30 -398 40
-128 3 -235 7 -238 9 -2 3 -18 1 -34 -3 -16 -5 -31 -5 -33 -2 -2 4 -72 7 -155
7 l-150 0 -36 95 c-20 52 -42 108 -50 125 -7 16 -11 33 -9 37 3 4 0 8 -5 8 -6
0 -11 5 -11 12 0 10 -133 365 -170 453 -30 72 -38 93 -49 121 -7 17 -18 31
-26 31 -8 0 -11 -5 -8 -10z"/>
<path d="M4248 8412 c-8 -9 -25 -46 -37 -82 -13 -36 -29 -78 -36 -95 -32 -74
-138 -351 -138 -362 0 -7 -4 -13 -9 -13 -4 0 -8 -6 -8 -13 0 -7 -24 -74 -54
-149 -29 -76 -52 -138 -51 -140 2 -2 -60 -4 -138 -4 -78 -1 -272 -5 -432 -9
-159 -4 -319 -8 -355 -9 -122 -3 -117 -19 42 -128 65 -46 157 -110 203 -143
46 -33 120 -85 165 -115 45 -30 86 -60 93 -65 7 -6 44 -32 82 -58 39 -26 81
-57 95 -68 l24 -21 -37 -111 c-52 -158 -220 -674 -241 -744 -13 -42 26 -37
107 14 42 26 201 127 354 223 153 96 300 189 328 207 27 18 53 33 58 33 4 0
111 -65 238 -145 127 -80 234 -145 239 -145 4 0 10 -3 12 -8 4 -10 166 -112
177 -112 5 0 11 -4 13 -8 2 -4 34 -27 72 -51 54 -34 73 -41 85 -33 9 5 15 14
15 19 -2 7 -128 400 -230 713 -24 75 -44 141 -44 146 0 10 43 42 250 186 36
25 139 98 230 161 91 64 172 121 180 127 90 61 130 93 130 106 0 7 -3 15 -7
15 -20 3 -141 7 -413 13 -414 10 -593 15 -595 18 -1 2 -39 100 -85 218 -45
118 -88 229 -95 245 -7 17 -16 41 -20 55 -4 14 -16 43 -25 65 -10 22 -38 93
-62 157 -23 65 -48 120 -55 122 -6 3 -18 -3 -25 -12z"/>
<path d="M7088 8403 c-9 -10 -19 -29 -23 -43 -4 -14 -64 -169 -132 -345 -68
-176 -136 -351 -150 -390 -15 -38 -28 -71 -29 -73 -1 -2 -100 -5 -220 -8 -121
-3 -268 -7 -329 -9 -60 -2 -183 -4 -272 -5 -188 -3 -211 -10 -171 -53 14 -15
30 -27 35 -27 5 0 18 -9 28 -20 10 -11 24 -20 32 -20 7 0 13 -3 13 -7 0 -5 21
-21 48 -38 26 -16 49 -32 52 -35 14 -15 80 -60 88 -60 6 0 12 -4 14 -8 2 -5
39 -33 83 -64 44 -30 130 -90 190 -131 61 -42 115 -80 120 -85 6 -5 23 -17 38
-26 15 -10 27 -23 27 -29 0 -9 -160 -505 -247 -766 -27 -83 -32 -106 -21 -112
20 -13 26 -11 73 21 24 17 48 30 53 30 5 0 16 7 23 16 7 9 20 19 29 23 8 3 54
31 103 61 48 30 105 66 127 80 22 14 127 80 234 148 106 67 196 122 200 122 6
0 73 -42 344 -213 59 -37 114 -70 122 -74 8 -4 17 -9 20 -13 6 -7 200 -130
205 -130 2 0 32 -19 66 -41 48 -33 66 -40 78 -31 9 5 15 14 15 19 -2 8 -24 79
-188 583 l-92 284 50 35 c28 19 96 66 151 105 55 38 152 106 215 149 63 44
117 84 118 89 2 4 8 8 12 8 19 0 250 172 250 186 0 7 -3 14 -7 15 -38 5 -111
8 -388 14 -546 12 -617 14 -620 17 -1 2 -39 98 -83 213 -45 116 -115 298 -156
405 -42 107 -76 200 -76 206 0 6 -8 18 -18 28 -18 15 -20 15 -34 -1z"/>
<path d="M12820 8396 c-9 -11 -33 -68 -54 -126 -22 -58 -42 -109 -46 -115 -4
-5 -13 -28 -20 -50 -7 -22 -18 -53 -25 -70 -15 -36 -88 -224 -122 -315 -13
-36 -28 -74 -33 -85 -5 -11 -16 -37 -24 -57 -8 -21 -21 -38 -28 -39 -7 0 -76
-2 -153 -4 -77 -2 -259 -6 -405 -10 -146 -3 -299 -7 -340 -8 -123 -3 -126 -22
-16 -97 39 -27 109 -76 156 -110 47 -33 91 -63 99 -67 8 -4 22 -13 30 -21 29
-25 242 -172 251 -172 4 0 10 -4 12 -8 2 -4 38 -32 81 -61 42 -30 77 -58 77
-64 0 -6 -11 -42 -24 -81 -13 -39 -61 -186 -106 -326 -45 -140 -93 -285 -106
-322 -13 -38 -21 -68 -18 -68 2 0 0 -9 -6 -21 -17 -30 -20 -58 -9 -65 12 -7
89 25 89 38 0 4 5 8 11 8 5 0 36 17 67 38 32 20 66 42 77 49 11 6 69 42 128
80 59 37 119 75 132 83 103 65 172 109 245 155 47 30 89 54 93 55 4 0 69 -39
145 -86 205 -129 226 -143 239 -154 7 -5 15 -10 18 -10 5 0 33 -17 205 -128
30 -20 64 -41 75 -47 11 -6 46 -27 77 -48 106 -69 109 -53 27 195 -36 112 -90
277 -119 368 -28 91 -63 193 -75 228 l-23 62 96 68 c53 38 150 106 216 153 65
46 132 92 148 102 17 10 36 23 43 30 7 7 75 55 150 107 130 89 156 113 141
127 -8 8 -126 12 -851 28 -71 2 -137 4 -145 4 -13 1 -35 42 -46 86 -3 12 -181
470 -195 500 -4 11 -31 80 -59 152 -28 73 -54 134 -58 137 -4 2 -14 -6 -22
-18z"/>
<path d="M9953 8388 c-6 -13 -39 -95 -72 -183 -34 -88 -66 -169 -70 -180 -5
-11 -23 -58 -41 -105 -18 -47 -36 -94 -40 -105 -8 -19 -21 -54 -25 -65 -1 -3
-5 -14 -10 -25 -4 -11 -21 -54 -37 -95 -16 -41 -33 -79 -37 -83 -5 -5 -75 -10
-157 -12 -82 -2 -275 -7 -429 -10 -154 -4 -307 -8 -340 -9 -113 -2 -109 -22
24 -113 53 -37 177 -124 276 -193 255 -180 325 -228 368 -257 20 -14 37 -30
37 -36 0 -5 -54 -174 -119 -376 -66 -201 -128 -393 -139 -426 -40 -124 -42
-125 373 140 28 17 142 89 253 160 l204 128 31 -18 c18 -10 62 -38 98 -61 37
-24 71 -44 77 -44 6 0 12 -4 14 -8 4 -10 436 -282 448 -282 4 0 10 -3 12 -8 5
-12 138 -92 154 -92 21 0 17 37 -12 121 -14 41 -27 81 -29 89 -3 15 -88 277
-171 530 -24 74 -44 140 -44 146 0 6 99 80 221 165 121 85 236 165 254 179 18
14 94 67 169 118 123 86 156 116 141 130 -6 7 -71 9 -425 17 -435 9 -582 14
-585 17 -2 2 -40 100 -84 218 -78 205 -123 321 -142 365 -5 11 -29 74 -54 139
-58 152 -71 169 -92 124z"/>
</g>
</svg>
